<?xml version="1.0" standalone="no"?>
<!DOCTYPE svg PUBLIC "-//W3C//DTD SVG 20010904//EN"
 "http://www.w3.org/TR/2001/REC-SVG-20010904/DTD/svg10.dtd">
<svg version="1.0" xmlns="http://www.w3.org/2000/svg"
 width="80.000000pt" height="80.000000pt" viewBox="0 0 80.000000 80.000000"
 preserveAspectRatio="xMidYMid meet">

<g transform="translate(0.000000,80.000000) scale(0.100000,-0.100000)"
fill="#000000" stroke="none">
<path d="M224 650 c-59 -18 -126 -73 -156 -127 -74 -132 -29 -294 102 -367 46
-26 65 -30 120 -30 82 1 138 1 220 0 55 0 74 4 120 30 94 53 148 155 137 262
-15 147 -151 256 -297 237 -64 -8 -65 -8 -150 -1 -36 3 -79 1 -96 -4z m161
-27 c92 -31 165 -134 165 -233 0 -48 -24 -118 -53 -154 l-24 -29 -49 24 c-55
27 -91 74 -100 131 -4 21 -11 38 -17 38 -15 0 1 -80 25 -118 11 -18 39 -45 61
-60 34 -22 52 -27 106 -27 78 0 128 25 166 84 27 41 44 121 26 121 -6 0 -11
-10 -11 -22 -1 -36 -35 -102 -64 -126 -28 -22 -94 -47 -102 -40 -2 3 8 27 23
54 24 41 28 61 28 124 0 64 -4 83 -29 128 -17 29 -47 66 -68 81 -43 32 -36 41
31 41 133 0 251 -118 251 -250 0 -132 -118 -250 -250 -250 -132 0 -250 118
-250 250 0 48 24 118 53 154 l24 29 49 -24 c55 -27 91 -74 100 -131 4 -21 11
-38 17 -38 15 0 -1 80 -25 118 -11 18 -39 45 -61 60 -34 22 -52 27 -106 27
-78 0 -128 -25 -166 -84 -27 -41 -44 -121 -26 -121 6 0 11 10 11 23 1 35 35
101 64 125 28 22 94 47 102 40 2 -3 -8 -27 -23 -54 -24 -41 -28 -61 -28 -124
0 -64 4 -83 29 -128 17 -29 47 -66 68 -81 43 -32 36 -41 -31 -41 -61 0 -131
30 -176 75 -98 98 -98 252 0 350 69 70 164 91 260 58z"/>
<path d="M510 580 c0 -5 5 -10 10 -10 6 0 10 5 10 10 0 6 -4 10 -10 10 -5 0
-10 -4 -10 -10z"/>
<path d="M550 569 c0 -5 5 -7 10 -4 6 3 10 8 10 11 0 2 -4 4 -10 4 -5 0 -10
-5 -10 -11z"/>
<path d="M235 210 c-3 -5 -1 -10 4 -10 6 0 11 5 11 10 0 6 -2 10 -4 10 -3 0
-8 -4 -11 -10z"/>
<path d="M270 200 c0 -5 5 -10 10 -10 6 0 10 5 10 10 0 6 -4 10 -10 10 -5 0
-10 -4 -10 -10z"/>
</g>
</svg>
