<svg xmlns="http://www.w3.org/2000/svg" xmlns:xlink="http://www.w3.org/1999/xlink" viewBox="0,0,256,256" width="50px" height="50px" fill-rule="nonzero"><g fill="#fc8974" fill-rule="nonzero" stroke="none" stroke-width="1" stroke-linecap="butt" stroke-linejoin="miter" stroke-miterlimit="10" stroke-dasharray="" stroke-dashoffset="0" font-family="none" font-weight="none" font-size="none" text-anchor="none" style="mix-blend-mode: normal"><g transform="scale(5.12,5.12)"><path d="M4,4v40c0.00011,1.10452 0.89548,1.99989 2,2h38c1.10452,-0.00011 1.99989,-0.89548 2,-2v-12h-4v10h-34v-38zM35.97852,4.98047c-0.81349,0.00101 -1.54534,0.49459 -1.85108,1.24844c-0.30574,0.75385 -0.12447,1.61777 0.4585,2.18515l2.58594,2.58594h-1.12305c-10.07192,-0.25066 -16.43022,1.31546 -20.0957,5.72656c-3.66548,4.4111 -4.1218,10.78613 -3.95312,19.3125c0.02157,1.10457 0.93449,1.98251 2.03906,1.96094c1.10457,-0.02157 1.98251,-0.93449 1.96094,-2.03906c-0.16433,-8.30664 0.53378,-13.67654 3.0293,-16.67969c2.49552,-3.00315 7.3048,-4.52059 16.92188,-4.28125h0.02344h1.19727l-2.58594,2.58594c-0.52248,0.50163 -0.73295,1.24653 -0.55024,1.94742c0.18271,0.70088 0.73006,1.24823 1.43094,1.43094c0.70088,0.18271 1.44578,-0.02776 1.94742,-0.55024l5.82227,-5.82227c0.14436,-0.10967 0.27315,-0.23845 0.38281,-0.38281l1.20898,-1.20898l-1.20898,-1.20898c-0.11151,-0.14765 -0.24298,-0.27911 -0.39062,-0.39062l-5.81445,-5.81445c-0.37701,-0.38755 -0.89487,-0.60596 -1.43555,-0.60547z"></path></g></g></svg>